<?xml version="1.0" encoding="utf-8"?>
<!-- Generator: Adobe Illustrator 19.0.0, SVG Export Plug-In . SVG Version: 6.00 Build 0)  -->
<svg version="1.1" id="Layer_1" xmlns="http://www.w3.org/2000/svg" xmlns:xlink="http://www.w3.org/1999/xlink" x="0px" y="0px"
	 viewBox="0 0 512 512" style="enable-background:new 0 0 512 512;" xml:space="preserve">
<g id="XMLID_1_">
	<path id="XMLID_8_" d="M283,368.3c-41,18.6-79.1,18.6-104.3,16.8c-30.7-1.9-54.9-10.2-66.1-17.7c-6.5-4.7-15.8-2.8-20.5,3.7
		c-4.7,6.5-2.8,15.8,3.7,20.5c17.7,12.1,48.4,20.5,80.1,22.3c5.6,0,11.2,0.9,17.7,0.9c27.9,0,63.3-2.8,101.5-20.5
		c7.4-3.7,10.2-12.1,7.4-19.5C298.8,368.3,290.4,364.6,283,368.3L283,368.3z M445,346.9c1.9-126.6,14-364.9-227.1-345.4
		C-21.4,21,41.9,273.3,39.1,357.1C36.3,401.8,21.4,456.7,0,511.6h64.2c6.5-23.3,11.2-46.5,14-68.9c3.7,2.8,8.4,5.6,12.1,7.4
		c7.4,4.7,13,10.2,20.5,15.8c15.8,14,32.6,29.8,67,31.7h6.5c34.4,0,57.7-14.9,77.3-27c9.3-5.6,16.8-11.2,24.2-13
		c21.4-6.5,39.1-16.8,53.1-30.7l5.6-6.5c7.4,27.9,17.7,59.6,29.8,90.3H512C477.6,460.4,444,410.2,445,346.9L445,346.9z M61.4,278
		L61.4,278c-2.8-41,17.7-76.3,43.8-77.3c27-1.9,50.3,30.7,53.1,71.7l0,0v6.5c-8.4,1.9-15.8,5.6-23.3,8.4v-0.9
		c-1.9-23.3-14.9-41-27.9-39.1c-13,1.9-22.3,22.3-19.5,45.6c0.9,10.2,3.7,19.5,8.4,26.1c-0.9,0.9-3.7,2.8-7.4,5.6
		c-2.8,1.9-5.6,3.7-9.3,6.5C68.9,318,62.4,298.5,61.4,278L61.4,278z M331.4,379.4c-0.9,21.4-29.8,41.9-55.9,50.3l0,0
		c-11.2,3.7-20.5,10.2-30.7,16.8c-17.7,11.2-35.4,23.3-61.4,23.3h-5.6c-24.2-0.9-34.4-11.2-49.3-24.2c-7.4-6.5-14.9-14-25.1-19.5
		l0,0c-21.4-12.1-34.4-27-35.4-40c0-6.5,2.8-12.1,8.4-16.8c13-10.2,22.3-16.8,27.9-20.5c6.5-4.7,8.4-6.5,10.2-7.4l3.7-3.7
		c12.1-12.1,32.6-31.7,64.2-31.7c19.5,0,40,7.4,63.3,22.3c10.2,6.5,19.5,10.2,31.7,14c8.4,2.8,17.7,5.6,29.8,11.2l0,0
		C318.4,357.1,332.3,365.5,331.4,379.4L331.4,379.4z M325.8,328.2l-6.5-2.8c-11.2-4.7-19.5-8.4-27-10.2c3.7-8.4,6.5-17.7,6.5-28.9
		c0.9-26.1-13-47.5-29.8-47.5s-30.7,21.4-31.7,47.5v2.8c-10.2-4.7-20.5-8.4-30.7-10.2v-2.8l0,0c-0.9-47.5,27.9-87.5,65.2-88.4
		c37.2-0.9,68,37.2,68.9,84.7l0,0C340.7,292.9,335.1,313.4,325.8,328.2L325.8,328.2z"/>
</g>
</svg>
